<svg xmlns="http://www.w3.org/2000/svg" width="512" height="512" viewBox="0 0 512 512">
<g>
<path d="M 28.56 464.78 C26.46,461.79 26.60,459.40 29.00,457.00 C30.99,455.01 32.33,455.00 256.00,455.00 C479.67,455.00 481.01,455.01 483.00,457.00 C485.40,459.40 485.54,461.79 483.44,464.78 L 481.89 467.00 L 256.00 467.00 L 30.11 467.00 L 28.56 464.78 ZM 60.19 431.25 C60.54,420.92 60.92,418.81 63.36,413.76 C67.03,406.17 74.00,399.37 82.00,395.58 L 88.50 392.50 L 114.52 392.50 L 140.54 392.50 L 147.19 395.77 C155.53,399.88 162.98,407.76 166.10,415.75 C167.75,420.00 168.45,424.31 168.78,432.25 L 169.22 443.00 L 114.51 443.00 L 59.79 443.00 L 60.19 431.25 ZM 180.73 431.25 C179.91,413.44 175.56,403.28 164.35,393.04 C158.86,388.02 149.28,382.79 143.24,381.52 L 139.98 380.84 L 143.49 376.74 C147.80,371.71 151.85,363.76 152.65,358.79 C153.58,353.00 156.16,352.50 185.00,352.50 C214.04,352.50 216.11,352.98 218.04,360.16 C219.64,366.08 223.25,372.86 226.92,376.81 C228.62,378.63 230.00,380.25 230.00,380.40 C230.00,380.56 228.09,381.26 225.75,381.96 C214.13,385.43 204.57,392.40 198.08,402.12 C192.12,411.04 190.00,418.92 190.00,432.11 L 190.00 443.00 L 185.64 443.00 L 181.27 443.00 L 180.73 431.25 ZM 201.01 436.75 C201.03,418.22 206.74,405.82 218.78,398.17 C227.25,392.79 232.04,392.00 256.00,392.00 C280.04,392.00 284.74,392.79 293.37,398.27 C304.22,405.16 309.53,415.69 310.61,432.44 L 311.29 443.00 L 256.15 443.00 L 201.00 443.00 L 201.01 436.75 ZM 322.00 432.11 C322.00,418.88 319.88,411.04 313.85,402.01 C307.64,392.72 296.84,384.92 286.20,382.05 L 281.94 380.91 L 285.35 376.70 C289.41,371.69 291.71,367.33 293.89,360.54 C296.32,352.95 298.08,352.52 327.50,352.51 C355.79,352.50 358.41,353.01 359.37,358.79 C360.28,364.23 364.29,372.21 368.44,376.80 L 372.07 380.82 L 368.79 381.52 C362.72,382.79 353.15,388.01 347.65,393.04 C336.44,403.28 332.09,413.44 331.27,431.25 L 330.73 443.00 L 326.36 443.00 L 322.00 443.00 L 322.00 432.11 ZM 343.18 431.61 C343.58,421.29 343.92,419.60 346.80,413.75 C350.64,405.95 357.85,398.90 365.78,395.18 L 371.50 392.50 L 397.50 392.50 L 423.50 392.50 L 430.00 395.61 C438.24,399.55 444.40,405.72 448.36,414.00 C451.15,419.84 451.50,421.65 451.84,431.75 L 452.22 443.00 L 397.48 443.00 L 342.75 443.00 L 343.18 431.61 ZM 105.62 376.42 C98.37,374.11 90.65,366.03 88.45,358.48 C83.30,340.77 96.28,323.61 114.73,323.71 C130.04,323.80 141.38,335.42 141.36,351.00 C141.35,365.20 130.84,376.30 116.26,377.50 C112.56,377.81 108.75,377.42 105.62,376.42 ZM 247.72 376.62 C235.29,371.99 228.22,361.26 229.24,348.58 C229.85,341.06 232.54,335.55 238.04,330.58 C243.72,325.45 248.26,323.73 256.00,323.76 C263.70,323.80 268.49,325.64 274.18,330.77 C288.01,343.24 285.08,366.43 268.67,374.46 C261.94,377.75 253.17,378.66 247.72,376.62 ZM 388.97 376.52 C378.40,373.12 370.74,362.45 370.67,351.00 C370.60,339.83 375.89,331.16 385.69,326.36 C406.68,316.10 430.16,335.75 423.65,358.14 C419.54,372.28 403.01,381.04 388.97,376.52 ZM 176.76 337.64 C171.44,335.65 168.53,333.56 165.41,329.47 C157.05,318.51 160.38,301.84 172.30,295.00 C183.87,288.37 199.18,292.59 205.02,304.03 C212.83,319.34 202.83,337.16 185.62,338.60 C182.63,338.85 178.95,338.45 176.76,337.64 ZM 320.00 337.75 C314.60,335.96 306.65,327.43 305.06,321.74 C302.37,312.10 306.33,301.53 314.85,295.53 C318.59,292.91 320.17,292.47 326.83,292.21 C333.85,291.94 334.94,292.17 339.74,294.97 C343.52,297.17 345.83,299.48 348.03,303.26 C350.83,308.06 351.06,309.15 350.79,316.17 C350.53,322.83 350.09,324.41 347.47,328.15 C341.42,336.75 329.51,340.91 320.00,337.75 ZM 417.50 273.67 C391.28,258.47 389.49,257.24 389.29,254.47 C389.13,252.28 391.76,246.90 399.30,234.00 C408.67,217.97 409.78,216.48 412.53,216.20 C414.88,215.97 421.48,219.35 443.02,231.80 C467.27,245.83 470.54,248.01 470.82,250.38 C471.05,252.30 468.50,257.66 461.83,269.28 C452.52,285.51 449.22,290.04 446.80,289.95 C446.08,289.93 432.90,282.60 417.50,273.67 ZM 238.00 262.04 C221.50,258.51 206.35,251.34 192.45,240.49 C174.17,226.22 160.50,205.38 154.25,182.28 C151.87,173.45 151.60,170.75 151.57,154.50 C151.53,137.86 151.73,135.76 154.27,126.63 C165.05,87.90 194.36,58.64 232.79,48.24 C241.58,45.86 244.20,45.61 260.50,45.61 C276.80,45.61 279.42,45.86 288.21,48.24 C326.62,58.63 356.71,88.75 366.68,126.79 C368.56,133.96 369.36,140.03 369.73,150.00 C370.29,164.98 369.33,173.17 365.46,186.54 C364.05,191.42 363.12,196.34 363.40,197.48 C363.75,198.86 369.00,202.46 379.47,208.50 C388.02,213.43 394.90,217.70 394.76,217.99 C392.45,222.73 382.59,239.00 382.02,239.00 C381.59,239.00 374.55,235.18 366.37,230.50 C358.19,225.83 350.68,222.01 349.68,222.00 C348.68,222.00 344.86,225.19 341.20,229.10 C325.29,246.05 303.36,258.20 280.99,262.44 C269.69,264.59 248.99,264.39 238.00,262.04 ZM 271.85 247.96 C308.11,243.41 338.89,218.15 349.80,184.00 C353.32,172.97 354.37,165.95 354.31,154.00 C354.16,129.10 345.66,107.97 328.63,90.24 C309.91,70.74 287.05,60.89 260.55,60.91 C245.55,60.92 236.04,62.79 223.50,68.20 C202.13,77.43 183.04,96.61 173.95,117.96 C164.71,139.68 164.17,165.47 172.50,187.59 C182.72,214.75 205.14,235.81 233.00,244.44 C246.70,248.68 257.95,249.70 271.85,247.96 ZM 249.13 235.99 C241.17,234.87 231.54,231.79 223.60,227.83 C216.34,224.21 204.00,215.11 204.00,213.39 C204.00,206.93 215.50,193.04 224.48,188.64 C232.51,184.71 238.02,184.00 260.50,184.00 C282.70,184.00 288.94,184.78 296.61,188.52 C305.56,192.88 317.00,206.68 317.00,213.11 C317.00,217.55 293.41,231.10 279.95,234.39 C271.69,236.41 257.42,237.15 249.13,235.99 ZM 191.35 198.76 C182.67,185.02 178.83,171.40 178.85,154.50 C178.87,137.22 183.24,122.31 192.10,109.31 C196.94,102.20 207.68,91.33 214.36,86.77 C236.19,71.88 265.35,68.57 290.21,78.14 C314.68,87.57 333.16,108.45 340.08,134.50 C343.04,145.65 343.05,163.33 340.09,174.50 C337.88,182.82 332.58,194.98 328.88,200.16 L 326.74 203.17 L 323.03 197.33 C315.97,186.24 306.07,178.46 294.37,174.83 L 287.18 172.60 L 291.23 168.05 C305.83,151.64 305.11,126.98 289.57,111.43 C273.30,95.17 247.70,95.17 231.43,111.43 C215.86,127.01 215.24,151.50 229.99,168.26 L 233.97 172.77 L 229.37 173.93 C217.42,176.94 203.72,187.26 197.78,197.75 C196.15,200.64 194.63,203.00 194.42,203.00 C194.20,203.00 192.82,201.09 191.35,198.76 ZM 251.33 168.21 C237.18,163.15 228.88,149.12 231.81,135.17 C235.88,115.76 255.93,105.86 273.62,114.52 C290.76,122.90 294.96,145.59 282.08,160.26 C275.00,168.32 261.45,171.83 251.33,168.21 Z" fill="rgba(0,166,81,1)"/>
</g>
</svg>