<svg width="159" height="159" viewBox="0 0 159 159" fill="none" xmlns="http://www.w3.org/2000/svg">
<path d="M93.5596 93.5381L111.03 111.008Z" fill="white"/>
<path d="M83.7006 28.0723C68.3695 12.7412 43.4231 12.7432 28.0919 28.0723C20.6591 35.5052 16.5643 45.3835 16.5635 55.8887C16.5615 66.3918 20.6508 76.2674 28.0789 83.6944C43.4172 99.0326 68.375 99.0334 83.714 83.6944C99.0451 68.3633 99.0392 43.4113 83.7006 28.0723ZM80.9847 80.9654C67.1493 94.7992 44.6417 94.7972 30.8079 80.9654C24.1093 74.2669 20.4217 65.3618 20.4236 55.8887C20.4244 46.4155 24.118 37.5061 30.8213 30.8017C44.6491 16.9758 67.1442 16.9762 80.9717 30.8017C94.8042 44.6362 94.8097 67.1391 80.9847 80.9654Z" fill="white"/>
<path d="M123.638 98.4052C122.884 97.6512 121.663 97.6512 120.909 98.4052L111.032 108.282L96.2541 93.504C116.399 71.9267 116.031 37.9867 94.908 16.8638C73.3984 -4.64853 38.3945 -4.64971 16.8838 16.863C-4.63524 38.382 -4.64193 73.3898 16.8696 94.9022C37.9417 115.976 71.9074 116.418 93.5252 96.2334L108.303 111.011L98.4118 120.902C97.6578 121.656 97.6578 122.877 98.4118 123.631C101.282 126.501 125.386 150.606 128.557 153.778C131.92 157.142 136.4 158.993 141.161 158.993H141.242C145.967 158.993 150.419 157.143 153.784 153.778C160.739 146.823 160.739 135.506 153.784 128.552C150.026 124.794 124.869 99.636 123.638 98.4052ZM19.5989 92.1732C-0.407345 72.1657 -0.400651 39.6065 19.6131 19.5923C39.6194 -0.413949 72.1708 -0.412769 92.1786 19.5931C112.2 39.6163 112.223 72.1433 92.1936 92.1728C72.1657 112.202 39.6296 112.204 19.5989 92.1732ZM122.274 102.499L142.325 122.551C147.767 128.002 147.766 136.866 142.319 142.313C139.684 144.948 136.203 146.397 132.501 146.397C128.693 146.408 125.202 144.964 122.554 142.316L102.506 122.267L122.274 102.499ZM151.055 151.049C148.42 153.685 144.937 155.134 141.233 155.134C137.514 155.094 133.937 153.699 131.287 151.049L130.343 150.106C131.059 150.193 131.781 150.253 132.511 150.257C137.234 150.257 141.684 148.407 145.049 145.043C149.053 141.038 150.738 135.589 150.131 130.357L151.055 131.281C156.504 136.731 156.504 145.599 151.055 151.049Z" fill="white"/>
</svg>
