<svg xmlns="http://www.w3.org/2000/svg" width="390" height="129" viewBox="0 0 390 129">
<g>
<path d="M 0.00 0.00 L 390.00 0.00 L 390.00 129.00 L 0.00 129.00 ZM 51.23 96.23 C51.93,96.71 57.90,96.94 64.50,96.74 C78.57,96.31 83.41,94.64 89.18,88.23 C93.65,83.27 94.99,78.85 94.99,69.00 C94.99,58.95 93.62,54.63 88.79,49.38 C83.18,43.30 77.83,41.85 62.38,42.22 L 50.50 42.50 L 50.23 68.93 C50.03,89.38 50.25,95.56 51.23,96.23 ZM 321.15 95.98 C324.32,97.31 330.93,96.36 334.00,94.13 C338.22,91.08 341.23,84.46 341.75,77.13 C342.39,68.19 340.69,62.45 336.02,57.79 C332.72,54.49 331.63,54.00 327.58,54.00 C324.89,54.00 321.26,54.85 319.00,56.00 C316.84,57.10 314.84,58.00 314.54,58.00 C314.24,58.00 314.00,53.28 314.00,47.50 L 314.00 37.00 L 303.97 37.00 L 304.50 95.50 L 308.50 95.50 C311.90,95.50 312.55,95.16 312.82,93.23 L 313.14 90.97 L 315.97 92.98 C317.52,94.08 319.85,95.43 321.15,95.98 ZM 198.72 95.91 C200.80,96.40 203.85,96.84 205.50,96.88 C210.73,97.03 222.44,94.10 223.75,92.31 C224.59,91.18 225.00,86.61 225.00,78.43 C225.00,69.82 224.63,65.98 223.75,65.35 C223.06,64.86 217.77,64.69 212.00,64.98 C201.98,65.48 201.49,65.60 201.17,67.81 C200.65,71.52 202.70,73.00 208.37,73.00 L 213.50 73.00 L 213.15 79.25 C212.96,82.69 212.28,85.83 211.65,86.23 C209.41,87.66 201.87,86.97 197.97,84.99 C188.56,80.18 186.24,63.80 193.73,54.91 C199.05,48.58 208.20,47.28 218.26,51.42 L 224.02 53.78 L 224.62 51.39 C226.58,43.57 221.62,40.50 207.00,40.50 C195.22,40.50 191.24,41.91 185.36,48.16 C179.56,54.33 178.50,57.48 178.50,68.50 C178.50,76.84 178.86,79.16 180.66,82.50 C184.37,89.38 190.59,93.99 198.72,95.91 ZM 268.04 95.83 C273.03,97.26 275.99,97.19 281.61,95.52 C290.55,92.87 295.00,85.80 295.00,74.24 C295.00,60.97 288.38,54.00 275.76,54.00 C261.84,54.00 255.07,61.12 255.02,75.79 C254.99,86.97 259.07,93.25 268.04,95.83 ZM 361.00 95.47 C366.11,97.17 375.39,96.70 380.71,94.48 C383.39,93.36 384.00,92.55 384.00,90.11 C384.00,88.46 383.59,86.87 383.09,86.56 C382.59,86.25 379.43,86.70 376.06,87.56 C366.99,89.89 361.15,87.49 359.47,80.75 L 358.78 78.00 L 371.36 78.00 C382.98,78.00 384.01,77.85 385.02,75.96 C387.73,70.90 383.03,59.09 377.00,55.79 C371.93,53.02 361.61,53.64 356.69,57.01 C350.81,61.04 348.56,66.14 348.53,75.50 C348.51,87.20 351.76,92.41 361.00,95.47 ZM 13.17 96.51 C18.98,98.33 23.86,98.31 29.10,96.47 C37.03,93.67 41.00,88.24 41.00,80.20 C41.00,72.98 38.15,69.37 28.49,64.35 C24.09,62.06 19.94,59.68 19.25,59.06 C17.28,57.27 17.71,52.23 19.93,51.04 C22.69,49.56 30.06,49.82 33.00,51.50 C37.07,53.83 38.00,53.37 38.00,49.02 C38.00,43.68 34.93,41.66 26.08,41.21 C20.72,40.94 18.68,41.30 15.06,43.19 C9.76,45.95 7.16,49.24 6.35,54.22 C5.05,62.25 8.62,67.14 20.17,73.15 C28.68,77.58 30.35,79.70 28.80,84.15 C26.95,89.45 19.22,90.19 10.76,85.88 C6.17,83.54 5.00,84.05 5.00,88.40 C5.00,92.40 7.30,94.68 13.17,96.51 ZM 106.25 96.35 C106.94,96.64 113.57,96.79 121.00,96.69 L 134.50 96.50 L 134.81 92.29 L 135.11 88.08 L 116.50 87.50 L 115.96 42.00 L 105.00 42.00 L 105.00 68.92 C105.00,89.51 105.29,95.96 106.25,96.35 ZM 76.74 85.35 C74.82,86.78 71.99,87.53 67.49,87.82 L 61.00 88.23 L 61.00 51.00 L 67.25 51.00 C78.77,51.01 83.45,56.19 83.48,69.00 C83.50,77.31 81.72,81.64 76.74,85.35 ZM 236.15 94.68 C236.90,95.59 238.79,95.99 241.41,95.80 L 245.50 95.50 L 245.77 66.20 L 246.03 36.89 L 240.77 37.20 L 235.50 37.50 L 235.23 65.38 C235.04,85.67 235.29,93.64 236.15,94.68 ZM 179.90 28.71 C187.59,33.89 199.00,29.13 199.00,20.73 C199.00,10.40 185.39,5.46 177.81,13.04 C172.55,18.30 173.35,24.31 179.90,28.71 ZM 280.69 85.59 C276.77,88.96 272.59,88.74 268.82,84.97 C265.88,82.04 265.80,81.69 266.17,74.36 C266.62,65.30 268.51,63.00 275.46,63.00 C281.97,63.00 283.50,65.33 283.50,75.19 C283.50,82.70 283.33,83.32 280.69,85.59 ZM 329.25 81.92 C326.69,86.92 324.25,88.19 320.38,86.54 C315.71,84.55 314.00,81.42 314.00,74.88 C314.00,69.64 314.27,68.97 317.53,66.10 C323.03,61.28 326.83,61.96 329.46,68.25 C331.48,73.08 331.41,77.70 329.25,81.92 ZM 164.00 45.29 C167.85,46.70 172.93,45.93 175.80,43.51 C179.34,40.54 180.15,37.27 178.40,33.09 C175.70,26.69 165.66,25.25 160.39,30.52 C155.89,35.02 157.86,43.05 164.00,45.29 ZM 340.32 120.99 C343.54,122.29 345.76,122.17 348.93,120.54 C352.31,118.79 353.00,117.25 353.00,111.42 C353.00,105.62 350.49,103.00 344.95,103.00 C339.36,103.00 336.00,106.39 336.00,112.02 C336.00,116.96 337.37,119.81 340.32,120.99 ZM 268.32 120.99 C277.42,124.66 285.12,113.51 278.93,105.63 C276.29,102.28 270.52,102.01 266.63,105.07 C264.49,106.76 264.00,107.98 264.00,111.64 C264.00,116.94 265.31,119.78 268.32,120.99 ZM 171.69 121.35 C173.36,123.02 174.54,120.91 175.01,115.42 L 175.52 109.50 L 177.43 115.21 C179.19,120.48 181.09,122.68 182.92,121.55 C183.32,121.30 184.48,118.37 185.49,115.04 C186.50,111.71 187.50,109.16 187.71,109.38 C187.92,109.59 188.25,112.03 188.44,114.80 C188.63,117.57 189.08,120.32 189.45,120.92 C191.22,123.78 192.00,121.20 192.00,112.50 L 192.00 103.00 L 189.45 103.00 C187.30,103.00 186.48,103.95 184.15,109.19 L 181.38 115.37 L 179.07 109.19 C176.97,103.57 176.49,103.00 173.88,103.00 L 171.00 103.00 L 171.00 111.83 C171.00,116.69 171.31,120.98 171.69,121.35 ZM 144.92 56.08 C150.50,61.66 160.33,58.48 160.33,51.10 C160.33,46.31 157.02,43.50 151.39,43.50 C147.63,43.50 146.40,43.99 144.41,46.31 C141.24,50.00 141.37,52.52 144.92,56.08 ZM 367.63 120.68 C371.00,123.22 372.00,121.22 372.00,111.89 C372.00,103.67 371.85,103.00 370.00,103.00 C368.22,103.00 368.00,103.68 367.97,109.25 L 367.94 115.50 L 364.72 109.50 C362.10,104.63 361.03,103.50 359.00,103.50 C356.55,103.50 356.49,103.66 356.21,112.25 C355.94,120.48 356.04,121.00 357.96,121.00 C359.79,121.00 360.00,120.37 360.02,114.75 L 360.04 108.50 L 363.05 114.00 C364.70,117.03 366.76,120.03 367.63,120.68 ZM 214.69 121.35 C216.14,122.81 217.51,121.19 217.81,117.67 C218.19,113.14 219.44,113.00 221.61,117.25 C223.24,120.42 224.74,121.95 226.25,121.98 C227.49,122.01 227.10,119.09 225.41,115.84 C224.28,113.63 224.13,112.47 224.91,111.69 C226.37,110.23 226.30,105.70 224.80,104.20 C224.14,103.54 221.44,103.00 218.80,103.00 L 214.00 103.00 L 214.00 111.83 C214.00,116.69 214.31,120.98 214.69,121.35 ZM 208.43 121.23 C211.89,123.61 211.93,121.52 208.59,112.22 C205.80,104.44 205.19,103.50 202.98,103.50 C200.80,103.50 200.18,104.40 197.81,111.00 C196.33,115.12 195.10,119.06 195.06,119.75 C194.96,121.81 198.15,121.16 198.71,119.00 C199.41,116.33 205.74,116.13 206.71,118.75 C207.06,119.71 207.84,120.83 208.43,121.23 ZM 299.50 120.81 C302.71,122.63 305.91,122.18 308.55,119.55 C310.69,117.40 311.00,116.19 311.00,110.05 C311.00,103.67 310.81,103.00 309.00,103.00 C307.21,103.00 307.00,103.67 307.00,109.43 C307.00,113.94 306.53,116.33 305.43,117.43 C301.96,120.90 300.15,118.66 299.80,110.48 C299.55,104.79 299.18,103.46 297.75,103.19 C296.21,102.89 296.00,103.74 296.02,110.18 C296.03,117.99 296.37,119.03 299.50,120.81 ZM 130.22 46.44 C131.44,47.30 133.59,48.00 135.00,48.00 C138.93,48.00 142.00,45.35 142.00,41.94 C142.00,36.09 135.28,33.02 130.22,36.56 C127.16,38.70 127.16,44.30 130.22,46.44 ZM 375.00 68.72 C375.00,70.90 374.66,71.00 366.98,71.00 L 358.96 71.00 L 359.59 68.25 C360.49,64.29 363.59,62.00 368.05,62.00 C372.29,62.00 375.00,64.62 375.00,68.72 ZM 157.75 120.92 C162.42,123.64 168.39,120.23 167.81,115.19 C167.59,113.26 166.44,111.93 163.75,110.50 C158.86,107.89 158.74,105.63 163.54,106.19 C166.33,106.52 167.01,106.28 166.78,105.05 C166.59,104.06 165.17,103.39 162.80,103.19 C159.78,102.94 158.82,103.34 157.45,105.44 C155.33,108.67 156.06,110.51 160.48,113.12 C165.84,116.28 164.75,119.44 158.69,118.28 C155.64,117.70 155.05,119.35 157.75,120.92 ZM 251.75 121.31 C256.40,122.53 260.77,120.76 261.64,117.32 C262.31,114.61 260.83,112.48 256.82,110.41 C252.75,108.30 253.14,106.00 257.58,106.00 C261.59,106.00 261.98,103.74 258.07,103.17 C249.60,101.93 247.00,109.39 254.49,113.43 C256.42,114.47 258.00,115.64 258.00,116.04 C258.00,117.72 255.02,119.04 252.60,118.43 C250.65,117.95 250.00,118.17 250.00,119.32 C250.00,120.16 250.79,121.06 251.75,121.31 ZM 376.25 121.34 C380.92,123.22 386.00,120.40 386.00,115.91 C386.00,113.57 385.25,112.49 382.50,110.87 C378.13,108.29 377.90,106.00 382.00,106.00 C385.00,103.49 383.99,103.00 381.93,103.00 C377.26,103.00 375.00,104.64 375.00,108.02 C375.00,110.39 375.81,111.49 379.07,113.55 C382.47,115.69 382.94,116.36 381.91,117.60 C381.08,118.60 379.75,118.89 377.84,118.47 C375.71,118.00 375.00,118.21 375.00,119.34 C375.00,120.16 375.56,121.06 376.25,121.34 ZM 234.25 121.28 C236.57,122.12 237.00,120.90 237.00,113.44 C237.00,106.17 237.06,106.00 239.50,106.00 C241.06,106.00 242.00,105.43 242.00,104.50 C242.00,103.31 240.56,103.00 235.00,103.00 C229.44,103.00 228.00,103.31 228.00,104.50 C228.00,105.43 228.94,106.00 230.50,106.00 C232.94,106.00 233.00,106.17 233.00,113.42 C233.00,118.44 233.40,120.98 234.25,121.28 ZM 318.69 121.35 C320.52,123.18 321.53,120.68 321.79,113.67 C322.07,106.27 322.17,106.00 324.54,106.00 C326.06,106.00 327.00,105.43 327.00,104.50 C327.00,103.31 325.56,103.00 320.00,103.00 C314.44,103.00 313.00,103.31 313.00,104.50 C313.00,105.43 313.94,106.00 315.50,106.00 C317.94,106.00 318.00,106.18 318.00,113.33 C318.00,117.37 318.31,120.98 318.69,121.35 ZM 347.43 117.43 C346.56,118.29 345.55,118.96 345.18,118.92 C343.57,118.73 341.44,117.62 340.77,116.60 C339.69,114.99 339.84,110.17 341.04,107.93 C342.19,105.77 345.96,105.36 347.80,107.20 C349.52,108.92 349.28,115.58 347.43,117.43 ZM 276.81 113.18 C276.43,116.99 273.42,119.17 270.25,117.94 C268.40,117.22 268.00,116.30 268.00,112.73 C268.00,107.89 269.31,106.00 272.66,106.00 C275.45,106.00 277.22,109.06 276.81,113.18 ZM 284.00 112.00 L 284.00 121.00 L 289.00 121.00 C292.78,121.00 294.00,120.63 294.00,119.50 L 288.00 118.00 L 288.00 110.50 C288.00,103.67 287.82,103.00 286.00,103.00 C284.15,103.00 284.00,103.67 284.00,112.00 ZM 329.69 121.35 C331.62,123.28 332.52,120.60 332.79,112.17 C333.06,103.52 332.96,103.00 331.04,103.00 C329.14,103.00 329.00,103.61 329.00,111.83 C329.00,116.69 329.31,120.98 329.69,121.35 ZM 222.27 109.75 C222.03,110.44 220.97,111.00 219.92,111.00 C218.54,111.00 218.00,110.30 218.00,108.50 C218.00,106.71 218.54,106.00 219.89,106.00 C221.91,106.00 222.99,107.70 222.27,109.75 ZM 204.45 111.75 C205.03,113.66 204.76,114.00 202.65,114.00 C200.32,114.00 200.24,113.83 201.30,111.01 C202.49,107.86 203.34,108.06 204.45,111.75 Z" fill="rgb(1,1,0)"/>
<path d="M 340.32 120.99 C337.37,119.81 336.00,116.96 336.00,112.02 C336.00,106.39 339.36,103.00 344.95,103.00 C350.49,103.00 353.00,105.62 353.00,111.42 C353.00,117.25 352.31,118.79 348.93,120.54 C345.76,122.17 343.54,122.29 340.32,120.99 ZM 268.32 120.99 C265.31,119.78 264.00,116.94 264.00,111.64 C264.00,107.98 264.49,106.76 266.63,105.07 C270.52,102.01 276.29,102.28 278.93,105.63 C285.12,113.51 277.42,124.66 268.32,120.99 ZM 171.69 121.35 C171.31,120.98 171.00,116.69 171.00,111.83 L 171.00 103.00 L 173.88 103.00 C176.49,103.00 176.97,103.57 179.07,109.19 L 181.38 115.37 L 184.15 109.19 C186.48,103.95 187.30,103.00 189.45,103.00 L 192.00 103.00 L 192.00 112.50 C192.00,121.20 191.22,123.78 189.45,120.92 C189.08,120.32 188.63,117.57 188.44,114.80 C188.25,112.03 187.92,109.59 187.71,109.38 C187.50,109.16 186.50,111.71 185.49,115.04 C184.48,118.37 183.32,121.30 182.92,121.55 C181.09,122.68 179.19,120.48 177.43,115.21 L 175.52 109.50 L 175.01 115.42 C174.54,120.91 173.36,123.02 171.69,121.35 ZM 367.63 120.68 C366.76,120.03 364.70,117.03 363.05,114.00 L 360.04 108.50 L 360.02 114.75 C360.00,120.37 359.79,121.00 357.96,121.00 C356.04,121.00 355.94,120.48 356.21,112.25 C356.49,103.66 356.55,103.50 359.00,103.50 C361.03,103.50 362.10,104.63 364.72,109.50 L 367.94 115.50 L 367.97 109.25 C368.00,103.68 368.22,103.00 370.00,103.00 C371.85,103.00 372.00,103.67 372.00,111.89 C372.00,121.22 371.00,123.22 367.63,120.68 ZM 214.69 121.35 C214.31,120.98 214.00,116.69 214.00,111.83 L 214.00 103.00 L 218.80 103.00 C221.44,103.00 224.14,103.54 224.80,104.20 C226.30,105.70 226.37,110.23 224.91,111.69 C224.13,112.47 224.28,113.63 225.41,115.84 C227.10,119.09 227.49,122.01 226.25,121.98 C224.74,121.95 223.24,120.42 221.61,117.25 C219.44,113.00 218.19,113.14 217.81,117.67 C217.51,121.19 216.14,122.81 214.69,121.35 ZM 208.43 121.23 C207.84,120.83 207.06,119.71 206.71,118.75 C205.74,116.13 199.41,116.33 198.71,119.00 C198.15,121.16 194.96,121.81 195.06,119.75 C195.10,119.06 196.33,115.12 197.81,111.00 C200.18,104.40 200.80,103.50 202.98,103.50 C205.19,103.50 205.80,104.44 208.59,112.22 C211.93,121.52 211.89,123.61 208.43,121.23 ZM 299.50 120.81 C296.37,119.03 296.03,117.99 296.02,110.18 C296.00,103.74 296.21,102.89 297.75,103.19 C299.18,103.46 299.55,104.79 299.80,110.48 C300.15,118.66 301.96,120.90 305.43,117.43 C306.53,116.33 307.00,113.94 307.00,109.43 C307.00,103.67 307.21,103.00 309.00,103.00 C310.81,103.00 311.00,103.67 311.00,110.05 C311.00,116.19 310.69,117.40 308.55,119.55 C305.91,122.18 302.71,122.63 299.50,120.81 ZM 130.22 46.44 C127.16,44.30 127.16,38.70 130.22,36.56 C135.28,33.02 142.00,36.09 142.00,41.94 C142.00,45.35 138.93,48.00 135.00,48.00 C133.59,48.00 131.44,47.30 130.22,46.44 ZM 157.75 120.92 C155.05,119.35 155.64,117.70 158.69,118.28 C164.75,119.44 165.84,116.28 160.48,113.12 C156.06,110.51 155.33,108.67 157.45,105.44 C158.82,103.34 159.78,102.94 162.80,103.19 C165.17,103.39 166.59,104.06 166.78,105.05 C167.01,106.28 166.33,106.52 163.54,106.19 C158.74,105.63 158.86,107.89 163.75,110.50 C166.44,111.93 167.59,113.26 167.81,115.19 C168.39,120.23 162.42,123.64 157.75,120.92 ZM 251.75 121.31 C250.79,121.06 250.00,120.16 250.00,119.32 C250.00,118.17 250.65,117.95 252.60,118.43 C255.02,119.04 258.00,117.72 258.00,116.04 C258.00,115.64 256.42,114.47 254.49,113.43 C247.00,109.39 249.60,101.93 258.07,103.17 C261.98,103.74 261.59,106.00 257.58,106.00 C253.14,106.00 252.75,108.30 256.82,110.41 C260.83,112.48 262.31,114.61 261.64,117.32 C260.77,120.76 256.40,122.53 251.75,121.31 ZM 376.25 121.34 C375.56,121.06 375.00,120.16 375.00,119.34 C375.00,118.21 375.71,118.00 377.84,118.47 C379.75,118.89 381.08,118.60 381.91,117.60 C382.94,116.36 382.47,115.69 379.07,113.55 C375.81,111.49 375.00,110.39 375.00,108.02 C375.00,104.64 377.26,103.00 381.93,103.00 C383.99,103.00 385.00,103.49 385.00,104.50 C377.90,106.00 378.13,108.29 382.50,110.87 C385.25,112.49 386.00,113.57 386.00,115.91 C386.00,120.40 380.92,123.22 376.25,121.34 ZM 234.25 121.28 C233.40,120.98 233.00,118.44 233.00,113.42 C233.00,106.17 232.94,106.00 230.50,106.00 C228.94,106.00 228.00,105.43 228.00,104.50 C228.00,103.31 229.44,103.00 235.00,103.00 C240.56,103.00 242.00,103.31 242.00,104.50 C242.00,105.43 241.06,106.00 239.50,106.00 C237.06,106.00 237.00,106.17 237.00,113.44 C237.00,120.90 236.57,122.12 234.25,121.28 ZM 318.69 121.35 C318.31,120.98 318.00,117.37 318.00,113.33 C318.00,106.18 317.94,106.00 315.50,106.00 C313.94,106.00 313.00,105.43 313.00,104.50 C313.00,103.31 314.44,103.00 320.00,103.00 C325.56,103.00 327.00,103.31 327.00,104.50 C327.00,105.43 326.06,106.00 324.54,106.00 C322.17,106.00 322.07,106.27 321.79,113.67 C321.53,120.68 320.52,123.18 318.69,121.35 ZM 347.43 117.43 C349.28,115.58 349.52,108.92 347.80,107.20 C345.96,105.36 342.19,105.77 341.04,107.93 C339.84,110.17 339.69,114.99 340.77,116.60 C341.44,117.62 343.57,118.73 345.18,118.92 C345.55,118.96 346.56,118.29 347.43,117.43 ZM 276.81 113.18 C277.22,109.06 275.45,106.00 272.66,106.00 C269.31,106.00 268.00,107.89 268.00,112.73 C268.00,116.30 268.40,117.22 270.25,117.94 C273.42,119.17 276.43,116.99 276.81,113.18 ZM 284.00 112.00 C284.00,103.67 284.15,103.00 286.00,103.00 C287.82,103.00 288.00,103.67 288.00,110.50 L 288.00 118.00 L 291.00 118.00 C294.00,120.63 292.78,121.00 289.00,121.00 L 284.00 121.00 ZM 329.69 121.35 C329.31,120.98 329.00,116.69 329.00,111.83 C329.00,103.61 329.14,103.00 331.04,103.00 C332.96,103.00 333.06,103.52 332.79,112.17 C332.52,120.60 331.62,123.28 329.69,121.35 ZM 222.27 109.75 C222.99,107.70 221.91,106.00 219.89,106.00 C218.54,106.00 218.00,106.71 218.00,108.50 C218.00,110.30 218.54,111.00 219.92,111.00 C220.97,111.00 222.03,110.44 222.27,109.75 ZM 204.45 111.75 C203.34,108.06 202.49,107.86 201.30,111.01 C200.24,113.83 200.32,114.00 202.65,114.00 C204.76,114.00 205.03,113.66 204.45,111.75 Z" fill="rgb(222,192,59)"/>
<path d="M 13.17 96.51 C7.30,94.68 5.00,92.40 5.00,88.40 C5.00,84.05 6.17,83.54 10.76,85.88 C19.22,90.19 26.95,89.45 28.80,84.15 C30.35,79.70 28.68,77.58 20.17,73.15 C8.62,67.14 5.05,62.25 6.35,54.22 C7.16,49.24 9.76,45.95 15.06,43.19 C18.68,41.30 20.72,40.94 26.08,41.21 C34.93,41.66 38.00,43.68 38.00,49.02 C38.00,53.37 37.07,53.83 33.00,51.50 C30.06,49.82 22.69,49.56 19.93,51.04 C17.71,52.23 17.28,57.27 19.25,59.06 C19.94,59.68 24.09,62.06 28.49,64.35 C38.15,69.37 41.00,72.98 41.00,80.20 C41.00,88.24 37.03,93.67 29.10,96.47 C23.86,98.31 18.98,98.33 13.17,96.51 ZM 51.23 96.23 C50.25,95.56 50.03,89.38 50.23,68.93 L 50.50 42.50 L 62.38 42.22 C77.83,41.85 83.18,43.30 88.79,49.38 C93.62,54.63 94.99,58.95 94.99,69.00 C94.99,78.85 93.65,83.27 89.18,88.23 C83.41,94.64 78.57,96.31 64.50,96.74 C57.90,96.94 51.93,96.71 51.23,96.23 ZM 76.74 85.35 C81.72,81.64 83.50,77.31 83.48,69.00 C83.45,56.19 78.77,51.01 67.25,51.00 L 61.00 51.00 L 61.00 69.62 L 61.00 88.23 L 67.49 87.82 C71.99,87.53 74.82,86.78 76.74,85.35 ZM 106.25 96.35 C105.29,95.96 105.00,89.51 105.00,68.92 L 105.00 42.00 L 110.48 42.00 L 115.96 42.00 L 116.23 64.75 L 116.50 87.50 L 125.81 87.79 L 135.11 88.08 L 134.81 92.29 L 134.50 96.50 L 121.00 96.69 C113.57,96.79 106.94,96.64 106.25,96.35 ZM 198.72 95.91 C190.59,93.99 184.37,89.38 180.66,82.50 C178.86,79.16 178.50,76.84 178.50,68.50 C178.50,57.48 179.56,54.33 185.36,48.16 C191.24,41.91 195.22,40.50 207.00,40.50 C221.62,40.50 226.58,43.57 224.62,51.39 L 224.02 53.78 L 218.26 51.42 C208.20,47.28 199.05,48.58 193.73,54.91 C186.24,63.80 188.56,80.18 197.97,84.99 C201.87,86.97 209.41,87.66 211.65,86.23 C212.28,85.83 212.96,82.69 213.15,79.25 L 213.50 73.00 L 208.37 73.00 C202.70,73.00 200.65,71.52 201.17,67.81 C201.49,65.60 201.98,65.48 212.00,64.98 C217.77,64.69 223.06,64.86 223.75,65.35 C224.63,65.98 225.00,69.82 225.00,78.43 C225.00,86.61 224.59,91.18 223.75,92.31 C222.44,94.10 210.73,97.03 205.50,96.88 C203.85,96.84 200.80,96.40 198.72,95.91 ZM 268.04 95.83 C259.07,93.25 254.99,86.97 255.02,75.79 C255.07,61.12 261.84,54.00 275.76,54.00 C288.38,54.00 295.00,60.97 295.00,74.24 C295.00,85.80 290.55,92.87 281.61,95.52 C275.99,97.19 273.03,97.26 268.04,95.83 ZM 280.69 85.59 C283.33,83.32 283.50,82.70 283.50,75.19 C283.50,65.33 281.97,63.00 275.46,63.00 C268.51,63.00 266.62,65.30 266.17,74.36 C265.80,81.69 265.88,82.04 268.82,84.97 C272.59,88.74 276.77,88.96 280.69,85.59 ZM 321.15 95.98 C319.85,95.43 317.52,94.08 315.97,92.98 L 313.14 90.97 L 312.82 93.23 C312.55,95.16 311.90,95.50 308.50,95.50 L 304.50 95.50 L 304.23 66.25 L 303.97 37.00 L 308.98 37.00 L 314.00 37.00 L 314.00 47.50 C314.00,53.28 314.24,58.00 314.54,58.00 C314.84,58.00 316.84,57.10 319.00,56.00 C321.26,54.85 324.89,54.00 327.58,54.00 C331.63,54.00 332.72,54.49 336.02,57.79 C340.69,62.45 342.39,68.19 341.75,77.13 C341.23,84.46 338.22,91.08 334.00,94.13 C330.93,96.36 324.32,97.31 321.15,95.98 ZM 329.25 81.92 C331.41,77.70 331.48,73.08 329.46,68.25 C326.83,61.96 323.03,61.28 317.53,66.10 C314.27,68.97 314.00,69.64 314.00,74.88 C314.00,81.42 315.71,84.55 320.38,86.54 C324.25,88.19 326.69,86.92 329.25,81.92 ZM 361.00 95.47 C351.76,92.41 348.51,87.20 348.53,75.50 C348.56,66.14 350.81,61.04 356.69,57.01 C361.61,53.64 371.93,53.02 377.00,55.79 C383.03,59.09 387.73,70.90 385.02,75.96 C384.01,77.85 382.98,78.00 371.36,78.00 L 358.78 78.00 L 359.47 80.75 C361.15,87.49 366.99,89.89 376.06,87.56 C379.43,86.70 382.59,86.25 383.09,86.56 C383.59,86.87 384.00,88.46 384.00,90.11 C384.00,92.55 383.39,93.36 380.71,94.48 C375.39,96.70 366.11,97.17 361.00,95.47 ZM 375.00 68.72 C375.00,64.62 372.29,62.00 368.05,62.00 C363.59,62.00 360.49,64.29 359.59,68.25 L 358.96 71.00 L 366.98 71.00 C374.66,71.00 375.00,70.90 375.00,68.72 ZM 236.15 94.68 C235.29,93.64 235.04,85.67 235.23,65.38 L 235.50 37.50 L 240.77 37.20 L 246.03 36.89 L 245.77 66.20 L 245.50 95.50 L 241.41 95.80 C238.79,95.99 236.90,95.59 236.15,94.68 ZM 144.92 56.08 C141.37,52.52 141.24,50.00 144.41,46.31 C146.40,43.99 147.63,43.50 151.39,43.50 C157.02,43.50 160.33,46.31 160.33,51.10 C160.33,58.48 150.50,61.66 144.92,56.08 ZM 164.00 45.29 C157.86,43.05 155.89,35.02 160.39,30.52 C165.66,25.25 175.70,26.69 178.40,33.09 C180.15,37.27 179.34,40.54 175.80,43.51 C172.93,45.93 167.85,46.70 164.00,45.29 ZM 179.90 28.71 C173.35,24.31 172.55,18.30 177.81,13.04 C185.39,5.46 199.00,10.40 199.00,20.73 C199.00,29.13 187.59,33.89 179.90,28.71 Z" fill="rgb(252,252,252)"/>
</g>
</svg>